<svg xmlns="http://www.w3.org/2000/svg" viewBox="0 0 480 320" role="img" aria-label="Ilustración genérica de unidad">
  <defs>
    <linearGradient id="bg" x1="0" y1="0" x2="0" y2="1">
      <stop offset="0" stop-color="#eff3f8"/><stop offset="1" stop-color="#dbe4ee"/>
    </linearGradient>
  </defs>
  <rect width="480" height="320" fill="url(#bg)"/>
  <rect x="0" y="252" width="480" height="68" fill="#c9d5e4"/>
  <ellipse cx="240" cy="254" rx="186" ry="16" fill="#0C1F3A" opacity=".14"/><rect x="64" y="100" width="352" height="132" rx="18" fill="#16345F"/><rect x="344" y="110" width="58" height="16" rx="4" fill="#0C1F3A"/><rect x="78" y="122" width="324" height="44.88" rx="8" fill="#cfe6ff"/><rect x="140.8" y="122" width="4" height="44.88" fill="#16345F"/><rect x="205.6" y="122" width="4" height="44.88" fill="#16345F"/><rect x="270.4" y="122" width="4" height="44.88" fill="#16345F"/><rect x="335.2" y="122" width="4" height="44.88" fill="#16345F"/><rect x="374" y="122" width="26" height="90" rx="4" fill="#0C1F3A" opacity=".9"/>
              <rect x="374" y="122" width="26" height="45" rx="4" fill="#cfe6ff" opacity=".9"/><rect x="64" y="202" width="352" height="14" rx="7" fill="#F5A623"/><rect x="400" y="204" width="12" height="12" rx="3" fill="#F5A623"/><g>
    <circle cx="130" cy="232" r="28" fill="#12181f"/>
    <circle cx="130" cy="232" r="20.16" fill="#1c2530"/>
    <circle cx="130" cy="232" r="12.88" fill="#c9d3df"/>
    <circle cx="130" cy="232" r="5.152000000000001" fill="#8894a6"/>
  </g><g>
    <circle cx="352" cy="232" r="28" fill="#12181f"/>
    <circle cx="352" cy="232" r="20.16" fill="#1c2530"/>
    <circle cx="352" cy="232" r="12.88" fill="#c9d3df"/>
    <circle cx="352" cy="232" r="5.152000000000001" fill="#8894a6"/>
  </g>
</svg>
